<svg class="diagram-root" style="background: #f5f6f6" xmlns="http://www.w3.org/2000/svg" xmlns:xlink="http://www.w3.org/1999/xlink"><style>.diagram-root { font-family: "Helvetica Neue", sans-serif; font-size: 12px; } .t { overflow: visible; } .t-bg { y: 40; fill: #fff;   } .th { fill: #005aa0;   } .tht { fill: #fff; font-size: 14px;  } .tf { fill: #323c46; overflow: visible; } .tf.pk { fill: #005aa0; font-weight: bold; } .tf.fk { font-weight: bold; } .ty { fill: #adb1b5; font-weight: normal; text-anchor: end; } .r { fill: transparent; stroke: #c3c3c3; stroke-width: 1; } .l { stroke: 1; } .i { fill: #c2c7ce; stroke: #c2c7ce; } .i.ix { fill: #afb3b6; stroke: #000; } .fa { fill: transparent; overflow: visible; } .fa .bg.hover { fill: #f7f7f7; } .c { cy: 12; r: 4; stroke: #d2d2dc; fill: #d2d2dc; } .hr { fill: transparent; stroke: #323c46; stroke-opacity: 0.035; stroke-width: 13; } .dc { stroke: #fa5a3c; fill: #fa5a3c; } .x { stroke: white; stroke-width: 1; } .hl .th { fill: #1b9bff; } .hl .tht {  } .fhl .bg { fill: #e7f4ff; } .fhls .bg {  } .r.hl { stroke: #1b9bff; } .dim { opacity: 0.25; }</style><g class="drawing-wrapper" transform="translate(-38, 19) scale(1,1)"><g class="rs"><path d="M 310 134 m -1, 0 a 1,1 0 1,0 2,0 a 1,1 0 1,0 -2,0 M 310 134 m -0.5, 0 a 0.5,0.5 0 1,0 1,0 a 0.5,0.5 0 1,0 -1,0  M310 134 L310 134 298 134 M 310 140 m -1, 0 a 1,1 0 1,0 2,0 a 1,1 0 1,0 -2,0 M 310 140 m -0.5, 0 a 0.5,0.5 0 1,0 1,0 a 0.5,0.5 0 1,0 -1,0  M310 140 L310 140 303 134 310 128 M 310 128 m -1, 0 a 1,1 0 1,0 2,0 a 1,1 0 1,0 -2,0 M 310 128 m -0.5, 0 a 0.5,0.5 0 1,0 1,0 a 0.5,0.5 0 1,0 -1,0  M298 134 Q 280.29 134, 262.58 101 T 227.15 68 M 215.15 68 m -1, 0 a 1,1 0 1,0 2,0 a 1,1 0 1,0 -2,0 M 215.15 68 m -0.5, 0 a 0.5,0.5 0 1,0 1,0 a 0.5,0.5 0 1,0 -1,0  M215.15 68 L215.15 68 227.15 68 M221.15 74 L221.15 74 221.15 62" id="h4037187786" class="r"></path><path d="M 332.15 444 m -1, 0 a 1,1 0 1,0 2,0 a 1,1 0 1,0 -2,0 M 332.15 444 m -0.5, 0 a 0.5,0.5 0 1,0 1,0 a 0.5,0.5 0 1,0 -1,0  M332.15 444 L332.15 444 344.15 444 M338.15 450 L338.15 450 338.15 438 M344.15 444 C 391.8886497272155 444, 427.9426497272155 314, 284.06 314 M 272.06 314 m -1, 0 a 1,1 0 1,0 2,0 a 1,1 0 1,0 -2,0 M 272.06 314 m -0.5, 0 a 0.5,0.5 0 1,0 1,0 a 0.5,0.5 0 1,0 -1,0  M272.06 314 L272.06 314 284.06 314 M278.06 320 L278.06 320 278.06 308" id="h1614200398" class="r"></path><path d="M 443 343 m -1, 0 a 1,1 0 1,0 2,0 a 1,1 0 1,0 -2,0 M 443 343 m -0.5, 0 a 0.5,0.5 0 1,0 1,0 a 0.5,0.5 0 1,0 -1,0  M443 343 L443 343 431 343 M 443 349 m -1, 0 a 1,1 0 1,0 2,0 a 1,1 0 1,0 -2,0 M 443 349 m -0.5, 0 a 0.5,0.5 0 1,0 1,0 a 0.5,0.5 0 1,0 -1,0  M443 349 L443 349 436 343 443 337 M 443 337 m -1, 0 a 1,1 0 1,0 2,0 a 1,1 0 1,0 -2,0 M 443 337 m -0.5, 0 a 0.5,0.5 0 1,0 1,0 a 0.5,0.5 0 1,0 -1,0  M431 343 Q 394.27 343, 357.53 303.5 T 284.06 264 M 272.06 264 m -1, 0 a 1,1 0 1,0 2,0 a 1,1 0 1,0 -2,0 M 272.06 264 m -0.5, 0 a 0.5,0.5 0 1,0 1,0 a 0.5,0.5 0 1,0 -1,0  M272.06 264 L272.06 264 284.06 264 M278.06 270 L278.06 270 278.06 258" id="h3529121010" class="r"></path><path d="M 591.47 368 m -1, 0 a 1,1 0 1,0 2,0 a 1,1 0 1,0 -2,0 M 591.47 368 m -0.5, 0 a 0.5,0.5 0 1,0 1,0 a 0.5,0.5 0 1,0 -1,0  M591.47 368 L591.47 368 603.47 368 M 591.47 374 m -1, 0 a 1,1 0 1,0 2,0 a 1,1 0 1,0 -2,0 M 591.47 374 m -0.5, 0 a 0.5,0.5 0 1,0 1,0 a 0.5,0.5 0 1,0 -1,0  M591.47 374 L591.47 374 598.47 368 591.47 362 M 591.47 362 m -1, 0 a 1,1 0 1,0 2,0 a 1,1 0 1,0 -2,0 M 591.47 362 m -0.5, 0 a 0.5,0.5 0 1,0 1,0 a 0.5,0.5 0 1,0 -1,0  M603.47 368 C 653.47 368, 721.27 134, 490.47 134 M 478.47 134 m -1, 0 a 1,1 0 1,0 2,0 a 1,1 0 1,0 -2,0 M 478.47 134 m -0.5, 0 a 0.5,0.5 0 1,0 1,0 a 0.5,0.5 0 1,0 -1,0  M478.47 134 L478.47 134 490.47 134 M484.47 140 L484.47 140 484.47 128" id="h1198919592" class="r"></path></g><g class="hrs"></g><g class="ts"><svg width="155.15" height="100" x="60" y="11" id="h99212310" class="t"><rect height="40" width="155.15" class="th"></rect><text x="13" y="25" class="tht">card_holder</text><rect height="60" width="155.15" class="t-bg" y="40"></rect><text x="13" y="61" class="tf pk">id<tspan x="142.15" class="ty">int</tspan></text><path d="M7,14A2,2 0 0,1 5,12A2,2 0 0,1 7,10A2,2 0 0,1 9,12A2,2 0 0,1 7,14M12.65,10C11.83,7.67 9.61,6 7, 6A6, 6 0 0, 0 1, 12A6, 6 0 0, 0 7, 18C9.61, 18 11.83, 16.33 12.65, 14H17V18H21V14H23V10H12.65Z" class="i pk" transform="translate(109.476171875, 48) scale(0.65)"></path><text x="13" y="86" class="tf">name<tspan x="142.15" class="ty">VARCHAR(50)</tspan></text></svg><svg width="168.47" height="100" x="310" y="77" id="h198306241" class="t"><rect height="40" width="168.47" class="th"></rect><text x="13" y="25" class="tht">credit_card</text><rect height="60" width="168.47" class="t-bg" y="40"></rect><text x="13" y="61" class="tf pk">card<tspan x="155.47" class="ty">VARCHAR(20)</tspan></text><path d="M7,14A2,2 0 0,1 5,12A2,2 0 0,1 7,10A2,2 0 0,1 9,12A2,2 0 0,1 7,14M12.65,10C11.83,7.67 9.61,6 7, 6A6, 6 0 0, 0 1, 12A6, 6 0 0, 0 7, 18C9.61, 18 11.83, 16.33 12.65, 14H17V18H21V14H23V10H12.65Z" class="i pk" transform="translate(56.339140625, 48) scale(0.65)"></path><text x="13" y="86" class="tf">cardholder_id<tspan x="155.47" class="ty">INT</tspan></text></svg><svg width="184.06" height="125" x="88" y="207" id="h1481749269" class="t"><rect height="40" width="184.06" class="th"></rect><text x="13" y="25" class="tht">merchant</text><rect height="85" width="184.06" class="t-bg" y="40"></rect><text x="13" y="61" class="tf pk">id<tspan x="171.06" class="ty">INT</tspan></text><path d="M7,14A2,2 0 0,1 5,12A2,2 0 0,1 7,10A2,2 0 0,1 9,12A2,2 0 0,1 7,14M12.65,10C11.83,7.67 9.61,6 7, 6A6, 6 0 0, 0 1, 12A6, 6 0 0, 0 7, 18C9.61, 18 11.83, 16.33 12.65, 14H17V18H21V14H23V10H12.65Z" class="i pk" transform="translate(131.729921875, 48) scale(0.65)"></path><text x="13" y="86" class="tf">name<tspan x="171.06" class="ty">VARCHAR(200)</tspan></text><text x="13" y="111" class="tf fk">id_merchant_category<tspan x="171.06" class="ty">INT</tspan></text></svg><svg width="155.15" height="100" x="177" y="387" id="h1670232039" class="t"><rect height="40" width="155.15" class="th"></rect><text x="13" y="25" class="tht">merchant_category</text><rect height="60" width="155.15" class="t-bg" y="40"></rect><text x="13" y="61" class="tf pk">id<tspan x="142.15" class="ty">INT</tspan></text><path d="M7,14A2,2 0 0,1 5,12A2,2 0 0,1 7,10A2,2 0 0,1 9,12A2,2 0 0,1 7,14M12.65,10C11.83,7.67 9.61,6 7, 6A6, 6 0 0, 0 1, 12A6, 6 0 0, 0 7, 18C9.61, 18 11.83, 16.33 12.65, 14H17V18H21V14H23V10H12.65Z" class="i pk" transform="translate(102.819921875, 48) scale(0.65)"></path><text x="13" y="86" class="tf">name<tspan x="142.15" class="ty">VARCHAR(20)</tspan></text></svg><svg width="148.47" height="175" x="443" y="211" id="h3007999074" class="t"><rect height="40" width="148.47" class="th"></rect><text x="13" y="25" class="tht">transaction</text><rect height="135" width="148.47" class="t-bg" y="40"></rect><text x="13" y="61" class="tf pk">id<tspan x="135.47" class="ty">INT</tspan></text><path d="M7,14A2,2 0 0,1 5,12A2,2 0 0,1 7,10A2,2 0 0,1 9,12A2,2 0 0,1 7,14M12.65,10C11.83,7.67 9.61,6 7, 6A6, 6 0 0, 0 1, 12A6, 6 0 0, 0 7, 18C9.61, 18 11.83, 16.33 12.65, 14H17V18H21V14H23V10H12.65Z" class="i pk" transform="translate(96.139921875, 48) scale(0.65)"></path><text x="13" y="86" class="tf">date<tspan x="135.47" class="ty">TIMESTAMP</tspan></text><text x="13" y="111" class="tf">amount<tspan x="135.47" class="ty">float</tspan></text><text x="13" y="136" class="tf fk">card<tspan x="135.47" class="ty">VARCHAR(20)</tspan></text><text x="13" y="161" class="tf fk">id_merchant<tspan x="135.47" class="ty">INT</tspan></text></svg></g></g><text class="qdbd-link" x="10" y="20">www.quickdatabasediagrams.com</text></svg>